<?xml version="1.0" encoding="UTF-8" standalone="no"?>
<!-- Created with Inkscape (http://www.inkscape.org/) -->

<svg
   xmlns:dc="http://purl.org/dc/elements/1.1/"
   xmlns:cc="http://creativecommons.org/ns#"
   xmlns:rdf="http://www.w3.org/1999/02/22-rdf-syntax-ns#"
   xmlns:svg="http://www.w3.org/2000/svg"
   xmlns="http://www.w3.org/2000/svg"
   xmlns:sodipodi="http://sodipodi.sourceforge.net/DTD/sodipodi-0.dtd"
   xmlns:inkscape="http://www.inkscape.org/namespaces/inkscape"
   version="1.0"
   width="123.62749"
   height="78.806252"
   id="svg2"
   xml:space="preserve"
   inkscape:version="0.48.2 r9819"
   sodipodi:docname="Australia W8-27.svg"><metadata
     id="metadata22"><rdf:RDF><cc:Work
         rdf:about=""><dc:format>image/svg+xml</dc:format><dc:type
           rdf:resource="http://purl.org/dc/dcmitype/StillImage" /><dc:title></dc:title></cc:Work></rdf:RDF></metadata><sodipodi:namedview
     pagecolor="#ffffff"
     bordercolor="#666666"
     borderopacity="1"
     objecttolerance="10"
     gridtolerance="10"
     guidetolerance="10"
     inkscape:pageopacity="0"
     inkscape:pageshadow="2"
     inkscape:window-width="1280"
     inkscape:window-height="1004"
     id="namedview20"
     showgrid="false"
     fit-margin-top="0"
     fit-margin-left="0"
     fit-margin-right="0"
     fit-margin-bottom="0"
     inkscape:zoom="3.9513156"
     inkscape:cx="37.645156"
     inkscape:cy="-14.221925"
     inkscape:window-x="-8"
     inkscape:window-y="-8"
     inkscape:window-maximized="1"
     inkscape:current-layer="svg2" /><defs
     id="defs5"><clipPath
       id="clipPath19"><path
         d="m 0,0 3687.89,0 0,2386.86 L 0,2386.86 0,0 z"
         id="path21"
         inkscape:connector-curvature="0" /></clipPath></defs><path
     inkscape:connector-curvature="0"
     d="m 10.74375,0 102.07,0 c 5.93875,0 10.81375,4.79375 10.81375,10.7325 l 0,57.246251 c 0,5.93875 -4.875,10.8275 -10.81375,10.8275 l -102.07,0 C 4.805,78.806251 0,73.917501 0,67.978751 L 0,10.7325 C 0,4.79375 4.805,0 10.74375,0"
     style="fill:#c0111e;fill-opacity:1;fill-rule:evenodd;stroke:none"
     id="path10035" /><path
     inkscape:connector-curvature="0"
     d="m 10.74375,76.758751 101.9475,0 c 4.80625,0 8.73875,-3.89125 8.73875,-8.575 l 0,-57.492501 c 0,-4.75125 -3.9325,-8.575 -8.73875,-8.575 l -101.9475,0 c -4.79125,0 -8.615,3.82375 -8.615,8.575 l 0,57.492501 c 0,4.68375 3.82375,8.575 8.615,8.575"
     style="fill:#ffffff;fill-opacity:1;fill-rule:evenodd;stroke:none"
     id="path10039" /><path
     inkscape:connector-curvature="0"
     d="m 10.82625,74.560001 101.9875,0 c 3.61875,0 6.485,-2.8825 6.485,-6.3775 l 0,-57.450001 c 0,-3.53625 -2.86625,-6.445 -6.485,-6.445 l -101.9875,0 c -3.535,0 -6.49875,2.90875 -6.49875,6.445 l 0,57.450001 c 0,3.495 2.96375,6.3775 6.49875,6.3775"
     style="fill:#c0111e;fill-opacity:1;fill-rule:evenodd;stroke:none"
     id="path10043" /><path
     inkscape:connector-curvature="0"
     d="m 25.0525,10.65 2.2075,0 1.47125,7.78 1.9075,-7.78 2.2475,0 1.9625,7.8475 1.485,-7.8475 2.19375,0 -2.31625,12.875 -2.385,0 -2.01625,-8.07875 -2.0025,8.07875 -2.43875,0 L 25.0525,10.65"
     style="fill:#ffffff;fill-opacity:1;fill-rule:evenodd;stroke:none"
     id="path10047" /><path
     inkscape:connector-curvature="0"
     d="m 43.445,10.65 6.19875,0 c 1.9625,0 3.761246,1.8525 3.761246,3.8425 0,1.29375 -0.655,3.215 -2.112496,3.5825 l 2.411246,5.45 -2.411246,0 -2.3025,-5.0275 -3.35125,0 0,5.0275 -2.19375,0 0,-12.875 z m 2.19375,2.22125 0,3.40625 4.005,0 c 0.8725,0 1.64875,-0.805 1.64875,-1.69 0,-0.6 -0.98125,-1.71625 -1.64875,-1.71625 l -4.005,0"
     style="fill:#ffffff;fill-opacity:1;fill-rule:evenodd;stroke:none"
     id="path10051" /><path
     inkscape:connector-curvature="0"
     d="m 62.628746,23.525 c -3.52875,0 -5.3,-2.9025 -5.3,-6.43125 0,-3.5425 1.6625,-6.44375 5.3275,-6.44375 3.67875,0 5.3275,2.90125 5.3275,6.44375 0,3.52875 -1.84,6.43125 -5.355,6.43125 z m 0.0138,-2.18 c 2.07125,0 3.16125,-1.92125 3.16125,-4.25125 0,-2.3425 -0.98125,-4.26375 -3.1475,-4.26375 -2.16625,0 -3.13375,1.92125 -3.13375,4.26375 0,2.33 1.04875,4.25125 3.12,4.25125"
     style="fill:#ffffff;fill-opacity:1;fill-rule:evenodd;stroke:none"
     id="path10055" /><path
     inkscape:connector-curvature="0"
     d="m 73.009996,10.65 2.01625,0 6.00875,8.515 0,-8.515 2.23375,0 0,12.875 -2.0025,0 -6.02125,-8.74625 0,8.74625 -2.235,0 0,-12.875"
     style="fill:#ffffff;fill-opacity:1;fill-rule:evenodd;stroke:none"
     id="path10059" /><path
     inkscape:connector-curvature="0"
     d="m 96.158746,14.5875 c -0.50375,-1.29375 -1.4175,-1.71625 -2.7525,-1.71625 -1.71625,0 -2.98375,2.03 -2.9425,3.515 0,3.10625 1.09,4.98625 3.2975,4.98625 0.9125,0 2.52,-1.0625 2.52,-2.09875 l -2.085,0 0,-2.22 4.36,0 0,2.22 c 0,0.1775 0,0.40875 0,0.7225 -1.10375,2.1125 -2.465,3.52875 -5.0275,3.52875 -4.005,0 -5.23125,-3.71875 -5.23125,-7.13875 0,-2.82 2.2075,-5.73625 5.23125,-5.73625 1.9625,0 3.88375,1.335 4.715,3.10625 l -2.085,0.83125"
     style="fill:#ffffff;fill-opacity:1;fill-rule:evenodd;stroke:none"
     id="path10063" /><path
     inkscape:connector-curvature="0"
     d="m 38.85375,30.9925 2.2075,0 1.47125,7.78 1.9075,-7.78 2.2475,0 1.9625,7.8475 1.485,-7.8475 2.19375,0 -2.31625,12.875 -2.385,0 -2.01625,-8.07875 -2.0025,8.07875 -2.43875,0 -2.31625,-12.875"
     style="fill:#ffffff;fill-opacity:1;fill-rule:evenodd;stroke:none"
     id="path10067" /><path
     inkscape:connector-curvature="0"
     d="m 60.733746,30.9925 2.3975,0 5.3825,12.875 -2.46625,0 -1.2675,-3.10625 -5.5175,0 -1.22625,3.10625 -2.3975,0 5.095,-12.875 z m -0.53125,7.6575 3.6375,0 -1.86625,-4.55125 -1.77125,4.55125"
     style="fill:#ffffff;fill-opacity:1;fill-rule:evenodd;stroke:none"
     id="path10071" /><path
     inkscape:connector-curvature="0"
     d="m 71.728746,30.9925 2.71125,0 3.77375,5.45 3.67875,-5.45 2.71125,0 -5.43625,7.78 0,5.095 -2.125,0 0,-5.095 -5.31375,-7.78"
     style="fill:#ffffff;fill-opacity:1;fill-rule:evenodd;stroke:none"
     id="path10075" /><path
     inkscape:connector-curvature="0"
     d="M 21.9725,59.12375 C 21.46875,57.83 20.555,57.4075 19.22,57.4075 c -1.71625,0 -2.98375,2.03 -2.9425,3.515001 0,3.10625 1.09,4.98625 3.2975,4.98625 0.9125,0 2.52,-1.0625 2.52,-2.09875 l -2.085,0 0,-2.22 4.36,0 0,2.22 c 0,0.1775 0,0.40875 0,0.7225 -1.10375,2.1125 -2.465,3.52875 -5.0275,3.52875 -4.005,0 -5.23125,-3.71875 -5.23125,-7.13875 0,-2.820001 2.2075,-5.736251 5.23125,-5.736251 1.9625,0 3.88375,1.335 4.715,3.10625 l -2.085,0.83125"
     style="fill:#ffffff;fill-opacity:1;fill-rule:evenodd;stroke:none"
     id="path10079" /><path
     inkscape:connector-curvature="0"
     d="m 33.40375,68.061251 c -3.52875,0 -5.3,-2.9025 -5.3,-6.43125 0,-3.542501 1.6625,-6.443751 5.3275,-6.443751 3.67875,0 5.3275,2.90125 5.3275,6.443751 0,3.52875 -1.84,6.43125 -5.355,6.43125 z m 0.01375,-2.18 c 2.07125,0 3.16125,-1.92125 3.16125,-4.25125 0,-2.342501 -0.98125,-4.263751 -3.1475,-4.263751 -2.16625,0 -3.13375,1.92125 -3.13375,4.263751 0,2.33 1.04875,4.25125 3.12,4.25125"
     style="fill:#ffffff;fill-opacity:1;fill-rule:evenodd;stroke:none"
     id="path10083" /><path
     inkscape:connector-curvature="0"
     d="m 53.158746,55.18625 6.4175,0 c 1.7975,0 3.4325,1.5125 3.4325,3.2975 0,0.79 -0.32625,2.152501 -1.13,2.656251 0.9675,0.7225 1.53875,2.1125 1.53875,3.31125 0,1.9075 -1.98875,3.61 -3.84125,3.61 l -6.4175,0 0,-12.875001 z m 2.22125,5.0275 3.855,0 c 0.7225,0 1.58125,-0.7625 1.58125,-1.49875 0,-0.5175 -0.58625,-1.3075 -1.22625,-1.3075 l -4.21,0 0,2.80625 z m 0,5.627501 4.46875,0 c 0.6675,0 1.38875,-0.7225 1.38875,-1.73125 0,-0.79 -1.14375,-1.7975 -1.89375,-1.7975 l -3.96375,0 0,3.52875"
     style="fill:#ffffff;fill-opacity:1;fill-rule:evenodd;stroke:none"
     id="path10087" /><path
     inkscape:connector-curvature="0"
     d="m 72.246246,55.18625 2.3975,0 5.3825,12.875001 -2.46625,0 -1.2675,-3.10625 -5.5175,0 -1.22625,3.10625 -2.3975,0 5.095,-12.875001 z m -0.53125,7.657501 3.6375,0 -1.86625,-4.551251 -1.77125,4.551251"
     style="fill:#ffffff;fill-opacity:1;fill-rule:evenodd;stroke:none"
     id="path10091" /><path
     inkscape:connector-curvature="0"
     d="m 91.811246,58.905 c -0.85875,-0.9675 -1.5125,-1.49875 -2.88875,-1.49875 -1.3075,0 -3.02375,1.40375 -3.0375,3.433751 -0.0275,2.5475 0.62625,5.15 3.16,5.0675 2.04375,-0.05375 2.12625,-0.77625 2.875,-1.56625 l 1.92125,0.9675 c -0.885,1.64875 -2.6975,2.7525 -4.56375,2.7525 -4.22375,0 -5.73625,-3.3525 -5.695,-7.24875 0.0263,-2.683751 2.4925,-5.627501 5.25875,-5.627501 2.425,0 3.7325,1.06375 5,2.64375 l -2.03,1.07625"
     style="fill:#ffffff;fill-opacity:1;fill-rule:evenodd;stroke:none"
     id="path10095" /><path
     inkscape:connector-curvature="0"
     d="m 99.032496,55.18625 2.111254,0 0,5.736251 4.57875,-5.736251 2.83375,0 -3.2425,4.25125 4.1825,8.623751 -2.3975,0 -3.36625,-6.7025 -2.58875,3.0925 0,3.61 -2.111254,0 0,-12.875001"
     style="fill:#ffffff;fill-opacity:1;fill-rule:evenodd;stroke:none"
     id="path10099" /><path
     inkscape:connector-curvature="0"
     d="m 38.215,47.84 47.006246,0 0,-1.774875 -47.006246,0 0,1.774875 z"
     style="fill:#ffffff;fill-opacity:1;fill-rule:nonzero;stroke:none"
     id="path10101" /></svg>